<svg xmlns="http://www.w3.org/2000/svg" xmlns:xlink="http://www.w3.org/1999/xlink" viewBox="0 0 400 400"><defs><style>.cls-1,.cls-11,.cls-16,.cls-19,.cls-7,.cls-9{fill:none;}.cls-2{fill:url(#linear-gradient);}.cls-3{fill:url(#linear-gradient-2);}.cls-4{fill:url(#linear-gradient-3);}.cls-5{fill:url(#linear-gradient-4);}.cls-6{fill:url(#linear-gradient-5);}.cls-11,.cls-16,.cls-19,.cls-7,.cls-9{stroke-miterlimit:10;}.cls-7{stroke-width:0.8px;stroke:url(#linear-gradient-6);}.cls-11,.cls-13,.cls-14,.cls-16,.cls-19,.cls-7,.cls-9{opacity:0.3;}.cls-8{fill:url(#linear-gradient-7);}.cls-9{stroke-width:0.35px;stroke:url(#linear-gradient-8);}.cls-10{fill:url(#linear-gradient-9);}.cls-11{stroke-width:0.12px;stroke:url(#linear-gradient-10);}.cls-12{fill:url(#linear-gradient-11);}.cls-13{fill:url(#linear-gradient-12);}.cls-14{fill:url(#linear-gradient-13);}.cls-15{fill:url(#linear-gradient-14);}.cls-16{stroke-width:1.28px;stroke:url(#linear-gradient-15);}.cls-17{clip-path:url(#clip-path);}.cls-18{fill:url(#linear-gradient-16);}.cls-19{stroke-width:0.79px;stroke:url(#linear-gradient-17);}</style><linearGradient id="linear-gradient" x1="378.8" y1="539.14" x2="168.87" y2="140.95" gradientTransform="translate(200 482.84) rotate(-135)" gradientUnits="userSpaceOnUse"><stop offset="0.01" stop-color="#fff"/><stop offset="0.99" stop-color="#ed6f00"/></linearGradient><linearGradient id="linear-gradient-2" x1="71.84" y1="79.76" x2="106.38" y2="47.26" gradientTransform="translate(400 400) rotate(180)" gradientUnits="userSpaceOnUse"><stop offset="0.01" stop-color="#f5a400"/><stop offset="0.99" stop-color="#fff"/></linearGradient><linearGradient id="linear-gradient-3" x1="227.8" y1="120.56" x2="272.14" y2="78.83" xlink:href="#linear-gradient-2"/><linearGradient id="linear-gradient-4" x1="230.42" y1="472.53" x2="185.73" y2="375.02" xlink:href="#linear-gradient-2"/><linearGradient id="linear-gradient-5" x1="207.76" y1="89.56" x2="128" y2="76.99" gradientTransform="translate(191.67 497.37) rotate(-103.28)" xlink:href="#linear-gradient"/><linearGradient id="linear-gradient-6" x1="-741.21" y1="638.74" x2="-681.45" y2="638.74" gradientTransform="translate(285.36 -637.85) rotate(-45)" gradientUnits="userSpaceOnUse"><stop offset="0.01" stop-color="#fff"/><stop offset="0.99" stop-color="#fff" stop-opacity="0"/></linearGradient><linearGradient id="linear-gradient-7" x1="232.75" y1="184.36" x2="198.34" y2="178.94" gradientTransform="translate(400 400) rotate(180)" gradientUnits="userSpaceOnUse"><stop offset="0.01" stop-color="#f5a400"/><stop offset="0.1" stop-color="#f7b42c"/><stop offset="0.23" stop-color="#f9c763"/><stop offset="0.37" stop-color="#fbd893"/><stop offset="0.5" stop-color="#fce6ba"/><stop offset="0.63" stop-color="#fdf1d8"/><stop offset="0.75" stop-color="#fef9ee"/><stop offset="0.88" stop-color="#fffdfb"/><stop offset="0.99" stop-color="#fff"/></linearGradient><linearGradient id="linear-gradient-8" x1="-689.11" y1="534.86" x2="-663.33" y2="534.86" xlink:href="#linear-gradient-6"/><linearGradient id="linear-gradient-9" x1="265.02" y1="50.24" x2="252.85" y2="48.33" xlink:href="#linear-gradient-7"/><linearGradient id="linear-gradient-10" x1="-805.42" y1="597.27" x2="-796.3" y2="597.27" xlink:href="#linear-gradient-6"/><linearGradient id="linear-gradient-11" x1="182.78" y1="22.37" x2="191.78" y2="22.37" gradientTransform="translate(400 400) rotate(180)" gradientUnits="userSpaceOnUse"><stop offset="0.01" stop-color="#fff"/><stop offset="0.99" stop-color="#fff"/></linearGradient><linearGradient id="linear-gradient-12" x1="182.78" y1="22.37" x2="191.78" y2="22.37" xlink:href="#linear-gradient-11"/><linearGradient id="linear-gradient-13" x1="343.46" y1="102.36" x2="332.28" y2="60.72" xlink:href="#linear-gradient-11"/><linearGradient id="linear-gradient-14" x1="381.55" y1="274.16" x2="254.87" y2="254.19" gradientTransform="translate(400 400) rotate(180)" xlink:href="#linear-gradient"/><linearGradient id="linear-gradient-15" x1="-736.4" y1="405.99" x2="-641.49" y2="405.99" xlink:href="#linear-gradient-6"/><clipPath id="clip-path"><circle class="cls-1" cx="200" cy="200" r="200" transform="translate(-82.84 200) rotate(-45)"/></clipPath><linearGradient id="linear-gradient-16" x1="57.55" y1="236.06" x2="-21.08" y2="223.67" gradientTransform="translate(164.24 238.84) rotate(-103.28)" xlink:href="#linear-gradient"/><linearGradient id="linear-gradient-17" x1="-531.33" y1="641.28" x2="-472.42" y2="641.28" xlink:href="#linear-gradient-6"/></defs><g id="分離模式"><circle class="cls-2" cx="200" cy="200" r="200" transform="translate(-82.84 200) rotate(-45)"/><path class="cls-3" d="M312.71,343c10.54,0,10.56-16.39,0-16.39S302.15,343,312.71,343Z"/><path class="cls-4" d="M152.37,308.63c13.53,0,13.55-21,0-21S138.81,308.63,152.37,308.63Z"/><path class="cls-5" d="M204.84,22c13,0,19.25-10.44,18.81-20.52A200.63,200.63,0,0,0,200,0c-4.69,0-9.32.22-13.92.54C185.2,10.89,191.44,22,204.84,22Z"/><circle class="cls-6" cx="234.32" cy="317.07" r="29.48" transform="translate(-128.1 472.27) rotate(-76.72)"/><circle class="cls-7" cx="234.32" cy="317.07" r="29.48"/><circle class="cls-8" cx="185.4" cy="218.5" r="12.72"/><circle class="cls-9" cx="185.4" cy="218.5" r="12.72"/><circle class="cls-10" cx="141.4" cy="350.77" r="4.5"/><path class="cls-11" d="M144.58,347.59a4.5,4.5,0,1,1-6.36,0A4.49,4.49,0,0,1,144.58,347.59Z"/><path class="cls-12" d="M208.22,377.63a4.5,4.5,0,1,1,4.5,4.5A4.51,4.51,0,0,1,208.22,377.63Z"/><circle class="cls-13" cx="212.72" cy="377.63" r="4.5"/><path class="cls-14" d="M47.44,321.25c-.19.24-.37.5-.56.75s-.47.61-.68.93-.37.61-.55.92-.36.57-.52.87-.31.64-.46,1c0,.05-.05.11-.08.16a200.94,200.94,0,0,0,28.08,28.39l.37-.17c.32-.15.65-.29,1-.46s.57-.34.86-.51.63-.37.93-.57.6-.44.91-.67.52-.37.76-.57c.54-.44,1.06-.91,1.57-1.41s1-1,1.41-1.57c.2-.24.38-.51.57-.76s.46-.6.67-.91.38-.62.57-.93.35-.57.51-.86.31-.65.46-1,.3-.61.43-.93.24-.63.35-.95.25-.68.36-1,.16-.65.25-1,.18-.7.25-1.05.12-.77.18-1.15.1-.61.13-.91c.07-.7.11-1.4.11-2.11a21,21,0,0,0-.11-2.11c0-.31-.09-.61-.13-.91s-.1-.78-.18-1.15-.17-.7-.25-1.05-.16-.66-.25-1-.24-.67-.36-1-.22-.65-.35-1-.28-.61-.43-.92-.29-.65-.46-1-.34-.57-.51-.86-.37-.63-.57-.93-.44-.61-.67-.91-.37-.52-.57-.77A20.68,20.68,0,0,0,79,319.69c-.51-.5-1-1-1.57-1.41-.24-.21-.51-.39-.76-.58s-.6-.46-.91-.67-.62-.38-.93-.56-.57-.35-.86-.51-.65-.31-1-.47-.61-.3-.93-.43-.63-.23-1-.35-.68-.25-1-.35-.65-.17-1-.25-.7-.19-1-.26-.77-.12-1.15-.17l-.92-.14c-.69-.06-1.39-.1-2.1-.1s-1.42,0-2.11.1l-.91.14c-.39.05-.78.1-1.15.17s-.7.17-1.05.26-.66.15-1,.25-.67.23-1,.35l-1,.35c-.31.13-.61.29-.92.43s-.66.3-1,.47-.58.34-.86.51-.63.36-.93.56-.61.45-.92.68-.51.37-.76.57a20.68,20.68,0,0,0-1.56,1.41C48.36,320.19,47.89,320.71,47.44,321.25Z"/><path class="cls-15" d="M38.47,136.38A46.82,46.82,0,1,1,85.29,183.2,46.82,46.82,0,0,1,38.47,136.38Z"/><circle class="cls-16" cx="85.29" cy="136.38" r="46.82"/><g class="cls-17"><circle class="cls-18" cx="383.94" cy="170.47" r="29.06" transform="translate(129.81 504.97) rotate(-76.72)"/><path class="cls-19" d="M404.48,149.93a29.06,29.06,0,1,1-41.09,0A29,29,0,0,1,404.48,149.93Z"/></g></g></svg>